<svg xmlns="http://www.w3.org/2000/svg" viewBox="0 0 378.24 113.51"><defs><style>.cls-1{fill:#341a0e;}.cls-2{fill:#a75f23;}.cls-3{font-size:48px;fill:#fff;font-family:Raleway-Bold, Raleway;font-weight:700;}</style></defs><g id="Layer_2" data-name="Layer 2"><g id="Layer_1-2" data-name="Layer 1"><path class="cls-1" d="M377.92,74.07q-1.07-17.88-2.14-35.77c-.32-5.27-.73-10.92-2.9-14.93-3-5.57-8.21-6-12.81-6-59.73.58-116.37,3.1-174.23-6.56A801.75,801.75,0,0,0,31,10.66c-7.2.69-15.06,1.93-20.19,10-6,9.47-6,24.64-5.7,38.1.47,18.21,2,39.36,11.62,49,5.64,5.63,12.69,5.74,19.34,5.68l324.75-3.1c4.05,0,8.36-.21,11.71-3.82C378.67,100,378.63,85.82,377.92,74.07Z"/><path class="cls-2" d="M372.91,67.07q-1.07-17.88-2.14-35.77c-.32-5.27-.73-10.92-2.89-14.93-3-5.57-8.22-6-12.82-6-59.73.58-116.37,3.1-174.23-6.56A801.75,801.75,0,0,0,26,3.66c-7.2.69-15.06,1.93-20.19,10-6,9.47-6,24.64-5.69,38.1.47,18.21,1.95,39.36,11.62,49,5.63,5.63,12.68,5.74,19.33,5.68l324.75-3.1c4.05,0,8.36-.21,11.71-3.82C373.66,93,373.62,78.82,372.91,67.07Z"/><path class="cls-1" d="M374.15,94a9.91,9.91,0,0,0-3.32-6,12.53,12.53,0,0,0-4.91-2.25,74.28,74.28,0,0,0-16.36-2.61c8.44-3.79,18-1.55,25.65-8.29"/><path class="cls-1" d="M374.28,64.85a27.29,27.29,0,0,0-12.06-2.69,30.47,30.47,0,0,0,6.13-3,15.77,15.77,0,0,0,5.19-5.86"/><text class="cls-3" transform="translate(132 71.92)">Back</text></g></g></svg>