<svg xmlns="http://www.w3.org/2000/svg" viewBox="0 0 291.28 134.04"><defs><style>.cls-1{fill:#341a0e;}.cls-2{fill:#a75f23;}.cls-3{font-size:36px;fill:#fff;font-family:Raleway-Bold, Raleway;font-weight:700;}.cls-4{letter-spacing:-0.02em;}</style></defs><g id="Layer_2" data-name="Layer 2"><g id="Layer_1-2" data-name="Layer 1"><path class="cls-1" d="M217.94,33.29c16.58,6.26,65.32,46.44,65.32,46.44s16,13.74,2.78,17.76c-12.53,3.8-50,26.21-61.31,33a19.13,19.13,0,0,1-7.55,2.57,99.55,99.55,0,0,1-16.8.84c-7.71-.49-154.85-22.94-192-28.62C3.58,104.58,0,100.82,0,96.6c.09-9.07.33-23.71.88-27.93.81-6.26-2.4-62.19,12-64.74C41.71-1.15,201.37,27,217.94,33.29Z"/><path class="cls-2" d="M281.82,74.91s-47.78-39.39-64-45.53S45-4.38,16.78.6C9.13,2,6.54,18.56,5.64,34.52c1.54-3.11,14-2,14.13-1.23.31,1.45-12.55,6.5-13,7.92-.16.51-1.48,2.07,1,2.46,3,.46,25.42,1,24.63,2.77-.53,1.19-19.58,1.71-26.59,10C4.13,58.44,5,67,5,69.12c-.08,6.59,11.46,2.64,16.75,4.54.13,0,.16.14,0,.21C17,76.77,7,78.19,6.06,80.3c-1.88,4.2-1.92,8.91-2,12.45s2.88,6.43,6.77,7c33.78,5.16,182,27.79,189.7,28.28A54.74,54.74,0,0,0,217,126.15a7.4,7.4,0,0,0,1.94-.82c6.8-4.11,52.6-31.59,64.91-34.46C297.16,87.78,281.82,74.91,281.82,74.91Z"/><text class="cls-3" transform="translate(43.1 66.05) rotate(8.08)">D<tspan class="cls-4" x="25.78" y="0">o</tspan><tspan x="46.94" y="0">wnload</tspan></text></g></g></svg>