<svg xmlns="http://www.w3.org/2000/svg" viewBox="0 0 291.28 134.04"><defs><style>.cls-1{fill:#341a0e;}.cls-2{fill:#a75f23;}.cls-3{fill:#fff;}</style></defs><g id="Layer_2" data-name="Layer 2"><g id="Layer_1-2" data-name="Layer 1"><path class="cls-1" d="M217.94,33.29c16.58,6.26,65.32,46.44,65.32,46.44s16,13.74,2.78,17.76c-12.53,3.8-50,26.21-61.31,33a19.13,19.13,0,0,1-7.55,2.57,99.55,99.55,0,0,1-16.8.84c-7.71-.49-154.85-22.94-192-28.62C3.58,104.58,0,100.82,0,96.6c.09-9.07.33-23.71.88-27.93.81-6.26-2.4-62.19,12-64.74C41.71-1.15,201.37,27,217.94,33.29Z"/><path class="cls-2" d="M281.82,74.91s-47.78-39.39-64-45.53S45-4.38,16.78.6C9.13,2,6.54,18.56,5.64,34.52c1.54-3.11,14-2,14.13-1.23.31,1.45-12.55,6.5-13,7.92-.16.51-1.48,2.07,1,2.46,3,.46,25.42,1,24.63,2.77-.53,1.19-19.58,1.71-26.59,10C4.13,58.44,5,67,5,69.12c-.08,6.59,11.46,2.64,16.75,4.54.13,0,.16.14,0,.21C17,76.77,7,78.19,6.06,80.3c-1.88,4.2-1.92,8.91-2,12.45s2.88,6.43,6.77,7c33.78,5.16,182,27.79,189.7,28.28A54.74,54.74,0,0,0,217,126.15a7.4,7.4,0,0,0,1.94-.82c6.8-4.11,52.6-31.59,64.91-34.46C297.16,87.78,281.82,74.91,281.82,74.91Z"/><path class="cls-3" d="M45.77,66.43l3.6-25.31,9.19,1.31a13.25,13.25,0,0,1,6.68,2.67,10.86,10.86,0,0,1,3.52,5.16,14.62,14.62,0,0,1,.49,6.56,14.21,14.21,0,0,1-2.49,6.48,11,11,0,0,1-5,3.8,13.33,13.33,0,0,1-6.83.63ZM64.29,56.11A10.23,10.23,0,0,0,64,51.65a6.91,6.91,0,0,0-2.16-3.28A7.48,7.48,0,0,0,58,46.74l-4.28-.61L51.31,62.81l4.27.61a7.51,7.51,0,0,0,4.26-.5,7,7,0,0,0,3-2.64A10.16,10.16,0,0,0,64.29,56.11Z"/><path class="cls-3" d="M79.41,71.57a10.86,10.86,0,0,1-4-1.34,8.94,8.94,0,0,1-2.78-2.54,9.53,9.53,0,0,1-1.51-3.34,10.27,10.27,0,0,1,1-7.3,9.65,9.65,0,0,1,2.38-2.79,9.06,9.06,0,0,1,3.38-1.66,10.62,10.62,0,0,1,4.2-.17,10.41,10.41,0,0,1,4,1.34,9.17,9.17,0,0,1,4.29,5.87,10.52,10.52,0,0,1,.14,3.76,10.07,10.07,0,0,1-1.18,3.54A9.19,9.19,0,0,1,87,69.73a8.92,8.92,0,0,1-3.38,1.66A10.8,10.8,0,0,1,79.41,71.57ZM75.88,61.32a6.21,6.21,0,0,0,.24,2.94,5,5,0,0,0,1.47,2.19,4.61,4.61,0,0,0,2.39,1,4.47,4.47,0,0,0,2.56-.36,5.34,5.34,0,0,0,2-1.71,6.14,6.14,0,0,0,1.06-2.76,6,6,0,0,0-.26-2.92,5.06,5.06,0,0,0-1.48-2.21,4.74,4.74,0,0,0-5-.69,5.21,5.21,0,0,0-2,1.71A6.24,6.24,0,0,0,75.88,61.32Z"/><path class="cls-3" d="M117.58,57.75l4.53.65L111.68,75.79l-4-.57-2-8.39-4.2,7.51-4-.57-5.14-19.6,4.49.63,3.58,14.77,3-5.73-2.12-8.37,4,.57L106.37,62l2.76-5.37,4,.56-4.37,7.45L110.07,71Z"/><path class="cls-3" d="M139.05,79.67,134.27,79l1.47-10.32a5.36,5.36,0,0,0-.33-3.35,2.6,2.6,0,0,0-2-1.32,4.45,4.45,0,0,0-2,.21,5.9,5.9,0,0,0-2,1.09A5.21,5.21,0,0,0,128,67.1l-1.53,10.79-4.78-.68,2.63-18.5,4.31.61-.49,3.45A7,7,0,0,1,130.25,61a8.21,8.21,0,0,1,2.73-.9,10.45,10.45,0,0,1,3.11,0,6.13,6.13,0,0,1,2.78,1,4.29,4.29,0,0,1,1.47,1.9,7.23,7.23,0,0,1,.49,2.46,16,16,0,0,1-.14,2.68Z"/><path class="cls-3" d="M146.88,54.24l4.77.68L148.8,75a2.64,2.64,0,0,0,.18,1.8,1.58,1.58,0,0,0,1.12.61,4.69,4.69,0,0,0,1.19,0,5.73,5.73,0,0,0,1.12-.21l.13,3.73a9.51,9.51,0,0,1-2.35.4,13.49,13.49,0,0,1-2.35-.08,4.85,4.85,0,0,1-3.31-1.7,4.6,4.6,0,0,1-.74-3.58Z"/><path class="cls-3" d="M163.09,83.45a10.69,10.69,0,0,1-4-1.34,8.83,8.83,0,0,1-2.78-2.54,9.45,9.45,0,0,1-1.51-3.34,9.88,9.88,0,0,1-.16-3.72,10,10,0,0,1,1.19-3.57,9.55,9.55,0,0,1,2.38-2.79,8.84,8.84,0,0,1,3.38-1.66,10.67,10.67,0,0,1,4.21-.18,10.47,10.47,0,0,1,4,1.34,9.12,9.12,0,0,1,4.3,5.88,10.46,10.46,0,0,1-1,7.29,9.19,9.19,0,0,1-2.36,2.79,9,9,0,0,1-3.38,1.67A10.67,10.67,0,0,1,163.09,83.45Zm-3.52-10.24a6,6,0,0,0,.23,2.93,5,5,0,0,0,1.47,2.19,4.61,4.61,0,0,0,2.4,1.06,4.48,4.48,0,0,0,2.56-.37,5.14,5.14,0,0,0,2-1.71,6.47,6.47,0,0,0,.81-5.68,5.08,5.08,0,0,0-1.49-2.21,4.73,4.73,0,0,0-5-.69,5.15,5.15,0,0,0-2,1.72A6.15,6.15,0,0,0,159.57,73.21Z"/><path class="cls-3" d="M175.61,79.3a5.2,5.2,0,0,1,1.46-3,6.56,6.56,0,0,1,3.13-1.69,11.2,11.2,0,0,1,4.28-.15,16.94,16.94,0,0,1,2.36.52,7.87,7.87,0,0,1,2,.87l.14-1a3.46,3.46,0,0,0-.66-2.84,4.63,4.63,0,0,0-3-1.39,8.38,8.38,0,0,0-3,.12,15.34,15.34,0,0,0-3.14,1.15l-1.09-3.35a15.45,15.45,0,0,1,4-1.28,13.55,13.55,0,0,1,4.17,0,9.1,9.1,0,0,1,5.94,2.85A7.16,7.16,0,0,1,193.71,76l-.83,5.86A1.69,1.69,0,0,0,193,83a1.32,1.32,0,0,0,.82.52l-.55,3.88h-1.18a5.71,5.71,0,0,1-.89,0,3.15,3.15,0,0,1-2.06-1,2.7,2.7,0,0,1-.69-1.69l0-1a8.23,8.23,0,0,1-3.37,2,8.67,8.67,0,0,1-3.83.33A7.18,7.18,0,0,1,178,84.8a5.93,5.93,0,0,1-2-2.41A5.47,5.47,0,0,1,175.61,79.3Zm11.49,2.58a4.92,4.92,0,0,0,.76-.75,1.5,1.5,0,0,0,.35-.72l.27-1.85a10.33,10.33,0,0,0-1.78-.8,11,11,0,0,0-1.86-.46,5.55,5.55,0,0,0-3.16.35,2.42,2.42,0,0,0-1.28,3.28,2.88,2.88,0,0,0,1,1.17,4,4,0,0,0,1.73.63,5.85,5.85,0,0,0,2.16-.1A5.42,5.42,0,0,0,187.1,81.88Z"/><path class="cls-3" d="M196.75,78.45a10.87,10.87,0,0,1,1.75-4.7,8.73,8.73,0,0,1,3.45-3,7.6,7.6,0,0,1,4.49-.66A7,7,0,0,1,210,71.63a7.47,7.47,0,0,1,2.22,3l1.54-10.84,4.77.68-2.93,20.67a1.78,1.78,0,0,0,.1,1.11,1.21,1.21,0,0,0,.8.51L216,90.6a10.93,10.93,0,0,1-2.06,0,3.36,3.36,0,0,1-2-.94,2.33,2.33,0,0,1-.71-1.81l.1-1.18a7.12,7.12,0,0,1-3.18,2.27,8,8,0,0,1-3.82.41,8.63,8.63,0,0,1-6-3.69,9.6,9.6,0,0,1-1.42-3.32A10.7,10.7,0,0,1,196.75,78.45ZM211.05,83l.62-4.37a4.91,4.91,0,0,0-.89-2,6.29,6.29,0,0,0-1.56-1.53,4.46,4.46,0,0,0-1.86-.74,4.3,4.3,0,0,0-2.06.17,5,5,0,0,0-1.72,1,5.22,5.22,0,0,0-1.25,1.64,6.7,6.7,0,0,0-.65,2.09,6.07,6.07,0,0,0,.08,2.17,4.85,4.85,0,0,0,.84,1.88,5.34,5.34,0,0,0,1.49,1.39,5.15,5.15,0,0,0,2,.71,4.79,4.79,0,0,0,1.41,0,6.57,6.57,0,0,0,1.41-.44,5.08,5.08,0,0,0,1.24-.83A4.44,4.44,0,0,0,211.05,83Z"/></g></g></svg>