<svg xmlns="http://www.w3.org/2000/svg" viewBox="0 0 314.39 86.57"><defs><style>.cls-1{fill:#341a0e;}.cls-2{fill:#a75f23;}.cls-3{fill:#fff;}</style></defs><g id="Layer_2" data-name="Layer 2"><g id="Layer_1-2" data-name="Layer 1"><path class="cls-1" d="M89,2.29c-18.57,2-77.89,23.85-77.89,23.85S-8.49,33.7,4.37,38.63C16.56,43.31,50.64,65.31,60.86,72a23.21,23.21,0,0,0,7.28,3A143.23,143.23,0,0,0,85.4,78.18C93.51,79,251.15,85,290.93,86.56c5.17.2,9.74-2,10.61-5.07,1.87-6.61,4.81-17.29,5.16-20.45.51-4.67,16-44.87,1.54-48.92C279.46,4,107.58.26,89,2.29Z"/><path class="cls-2" d="M293.42,60c-12.87-1.67-6.7-2.83-1.09-2.72,4.85.1,6.44-.79,8.84-1.16.26-1,.62-2.19,1-3.6-.46,0-.25-.15-2.43-.49-3.34-.52-1.95-.69-.48-.69,1.78,0,1.86,0,2.44-.34a1.53,1.53,0,0,0-1.09-.47c-3.34-.53-.93-.84.51-.81a8.17,8.17,0,0,0,1.88-.05c1.2-4.11,2.52-8.86,3.6-14.11-2.35-1.12,1.69-.07-17.17-3.15-3.15-.52-13.51-3.2-3.29-3.87,9-.6,18.54-.37,22.06-.92.43-7.28-.95-16-6-17.41C274,2.25,105.49-1.46,87.28.53S10.91,23.91,10.91,23.91s-18.71,7-5.56,11.31c12.16,4,53.75,30.91,59.92,34.93a8.51,8.51,0,0,0,1.84.9,76,76,0,0,0,16.63,3.88c8.06.81,166.9,6.9,203.09,8.28,4.16.16,7.85-1.6,8.55-4.09,1.35-4.75,3.46-12.33,4.59-17.2C299.74,61.12,299.3,60.72,293.42,60Z"/><path class="cls-3" d="M108.55,48.77l.87-25.54,11.3.39a7.3,7.3,0,0,1,3.23.83,8.31,8.31,0,0,1,2.53,2,9,9,0,0,1,1.59,2.79,8.14,8.14,0,0,1,.49,3.11,9.1,9.1,0,0,1-.66,3.1A7.83,7.83,0,0,1,126.21,38a7.23,7.23,0,0,1-2.51,1.64l5.5,9.81-5.47-.19-5-8.74-5-.17-.29,8.56ZM114,36l6.22.21a2.69,2.69,0,0,0,1.68-.5,4,4,0,0,0,1.2-1.46,4.93,4.93,0,0,0,.5-2.07,4.45,4.45,0,0,0-.43-2.16,4.25,4.25,0,0,0-1.23-1.5,2.89,2.89,0,0,0-1.65-.59l-6-.21Z"/><path class="cls-3" d="M140.09,50.21a10.52,10.52,0,0,1-4.07-.9A9.33,9.33,0,0,1,133,47.1a9.6,9.6,0,0,1-2.47-6.8,10,10,0,0,1,1.37-4.83A9.17,9.17,0,0,1,135.44,32a10.26,10.26,0,0,1,5.35-1.15A10,10,0,0,1,146,32.41a9.1,9.1,0,0,1,3.25,3.64,10,10,0,0,1,1,4.76q0,.44-.06.87c0,.3-.07.54-.1.73l-14.57-.5a5.36,5.36,0,0,0,.76,2.5,4.64,4.64,0,0,0,1.75,1.66,5.28,5.28,0,0,0,2.33.62,5.56,5.56,0,0,0,2.74-.61,3.75,3.75,0,0,0,1.81-1.79l4.1,1.29a7.83,7.83,0,0,1-2,2.49,9.47,9.47,0,0,1-3.06,1.64A11.06,11.06,0,0,1,140.09,50.21Zm-4.54-11.36,9.85.34a5.42,5.42,0,0,0-.72-2.47A4.69,4.69,0,0,0,143,35a5.05,5.05,0,0,0-2.39-.66,4.85,4.85,0,0,0-2.38.5,4.68,4.68,0,0,0-1.78,1.56A5.33,5.33,0,0,0,135.55,38.85Z"/><path class="cls-3" d="M160.28,50.9a7.92,7.92,0,0,1-6-3,9.7,9.7,0,0,1-1.64-3.12,11.44,11.44,0,0,1,.29-7.5,10,10,0,0,1,1.92-3.06,8.08,8.08,0,0,1,2.85-2,8.18,8.18,0,0,1,3.56-.62,7.51,7.51,0,0,1,3.82,1.1,8.31,8.31,0,0,1,2.65,2.72l.11-3.31,4.21.14-.61,17.84a8.27,8.27,0,0,1-1.51,4.72,8.65,8.65,0,0,1-3.83,2.91,13.15,13.15,0,0,1-5.43.87,11.89,11.89,0,0,1-5.15-1.2,10.44,10.44,0,0,1-3.53-3l2.71-2.46a7.56,7.56,0,0,0,2.65,2.18,8.14,8.14,0,0,0,3.44.87,7.28,7.28,0,0,0,2.84-.43A4.58,4.58,0,0,0,165.7,53a4.93,4.93,0,0,0,.87-2.86l.08-2.38a6.33,6.33,0,0,1-2.73,2.41A7.79,7.79,0,0,1,160.28,50.9ZM162,47.11a4.81,4.81,0,0,0,1.52-.2,5.6,5.6,0,0,0,1.35-.65,5,5,0,0,0,1.12-1,5.13,5.13,0,0,0,.76-1.18l.15-4.51a5.9,5.9,0,0,0-2.82-3.34,4.62,4.62,0,0,0-2-.51,4.13,4.13,0,0,0-2,.4,4.58,4.58,0,0,0-1.59,1.26,6.26,6.26,0,0,0-1.06,1.84,6.66,6.66,0,0,0-.41,2.14,5.83,5.83,0,0,0,.32,2.18,5.55,5.55,0,0,0,1,1.8A4.93,4.93,0,0,0,160,46.6,5,5,0,0,0,162,47.11Z"/><path class="cls-3" d="M175.72,51.07l.65-18.86,4.82.17-.64,18.85Zm.74-21.48.16-4.79,4.82.17-.16,4.78Z"/><path class="cls-3" d="M191.83,52a13.81,13.81,0,0,1-4.58-.95,10.41,10.41,0,0,1-3.7-2.47l1.84-3.07a12.79,12.79,0,0,0,3.26,2.13,8.41,8.41,0,0,0,3.12.75A4.49,4.49,0,0,0,194,48a1.57,1.57,0,0,0,.89-1.43,1.23,1.23,0,0,0-.43-1.06,4.22,4.22,0,0,0-1.32-.7c-.59-.21-1.29-.45-2.12-.71a33,33,0,0,1-3.45-1.44,5.24,5.24,0,0,1-2.05-1.68,4.2,4.2,0,0,1-.61-2.53A5.3,5.3,0,0,1,186,35.26a6.27,6.27,0,0,1,2.73-2,10,10,0,0,1,4-.6,11.36,11.36,0,0,1,3.79.75,9.22,9.22,0,0,1,3.2,2.15l-2,3a12.16,12.16,0,0,0-2.68-1.73,6.91,6.91,0,0,0-2.61-.61,5.56,5.56,0,0,0-1.43.13,2.34,2.34,0,0,0-1.1.55,1.56,1.56,0,0,0-.45,1.13,1.44,1.44,0,0,0,.34,1.06,3.13,3.13,0,0,0,1.13.69c.51.21,1.13.44,1.87.71a29.36,29.36,0,0,1,3.79,1.44,6.16,6.16,0,0,1,2.3,1.72,4.17,4.17,0,0,1,.7,2.71,5.16,5.16,0,0,1-2.2,4.25A9,9,0,0,1,191.83,52Z"/><path class="cls-3" d="M213.89,51.43c-.41.16-.91.33-1.49.53a12.78,12.78,0,0,1-1.87.46,10.4,10.4,0,0,1-2,.13,6.45,6.45,0,0,1-2.43-.55,3.91,3.91,0,0,1-1.73-1.54,4.76,4.76,0,0,1-.57-2.68l.36-10.73L201.67,37l.13-3.71,2.48.09.21-6.12,4.82.16-.21,6.12,4,.14-.13,3.7-4-.13-.31,9.09a1.79,1.79,0,0,0,.49,1.4,1.86,1.86,0,0,0,1.24.47,4.43,4.43,0,0,0,1.49-.2c.48-.15.87-.28,1.16-.4Z"/><path class="cls-3" d="M224.86,53.1a10.62,10.62,0,0,1-4.08-.9A9.25,9.25,0,0,1,217.73,50a9.48,9.48,0,0,1-2.47-6.8,9.9,9.9,0,0,1,1.37-4.83,9.11,9.11,0,0,1,3.57-3.42,10.21,10.21,0,0,1,5.35-1.16,10,10,0,0,1,5.25,1.52A9.14,9.14,0,0,1,234,38.94a9.87,9.87,0,0,1,1,4.76c0,.29,0,.58-.07.88s-.06.54-.09.72l-14.57-.49a5.25,5.25,0,0,0,.76,2.49A4.54,4.54,0,0,0,222.82,49a5.23,5.23,0,0,0,2.34.62A5.47,5.47,0,0,0,227.9,49a3.66,3.66,0,0,0,1.81-1.79l4.1,1.29A7.73,7.73,0,0,1,231.76,51a9.33,9.33,0,0,1-3.07,1.64A11,11,0,0,1,224.86,53.1Zm-4.55-11.36,9.86.34a5.46,5.46,0,0,0-.73-2.47,4.62,4.62,0,0,0-1.69-1.68,5,5,0,0,0-2.39-.66,4.84,4.84,0,0,0-2.37.5,4.61,4.61,0,0,0-1.78,1.56A5.5,5.5,0,0,0,220.31,41.74Z"/><path class="cls-3" d="M249.41,38.88a8.71,8.71,0,0,0-3.95.72,5.13,5.13,0,0,0-2.57,2.34l-.39,11.4-4.82-.16.64-18.67,4.42.15-.13,3.85a8.56,8.56,0,0,1,2.66-3,6.26,6.26,0,0,1,3.32-1.12l.61,0a1.79,1.79,0,0,1,.36,0Z"/></g></g></svg>