<svg xmlns="http://www.w3.org/2000/svg" viewBox="0 0 314.39 86.57"><defs><style>.cls-1{fill:#341a0e;}.cls-2{fill:#a75f23;}.cls-3{font-size:36px;fill:#fff;font-family:Raleway-Bold, Raleway;font-weight:700;}.cls-4{letter-spacing:-0.02em;}.cls-5{letter-spacing:0em;}.cls-6{letter-spacing:-0.01em;}.cls-7{letter-spacing:-0.02em;}</style></defs><g id="Layer_2" data-name="Layer 2"><g id="Layer_1-2" data-name="Layer 1"><path class="cls-1" d="M89,2.29c-18.57,2-77.89,23.85-77.89,23.85S-8.49,33.7,4.37,38.63C16.56,43.31,50.64,65.31,60.86,72a23.21,23.21,0,0,0,7.28,3A143.23,143.23,0,0,0,85.4,78.18C93.51,79,251.15,85,290.93,86.56c5.17.2,9.74-2,10.61-5.07,1.87-6.61,4.81-17.29,5.16-20.45.51-4.67,16-44.87,1.54-48.92C279.46,4,107.58.26,89,2.29Z"/><path class="cls-2" d="M293.42,60c-12.87-1.67-6.7-2.83-1.09-2.72,4.85.1,6.44-.79,8.84-1.16.26-1,.62-2.19,1-3.6-.46,0-.25-.15-2.43-.49-3.34-.52-1.95-.69-.48-.69,1.78,0,1.86,0,2.44-.34a1.53,1.53,0,0,0-1.09-.47c-3.34-.53-.93-.84.51-.81a8.17,8.17,0,0,0,1.88-.05c1.2-4.11,2.52-8.86,3.6-14.11-2.35-1.12,1.69-.07-17.17-3.15-3.15-.52-13.51-3.2-3.29-3.87,9-.6,18.54-.37,22.06-.92.43-7.28-.95-16-6-17.41C274,2.25,105.49-1.46,87.28.53S10.91,23.91,10.91,23.91s-18.71,7-5.56,11.31c12.16,4,53.75,30.91,59.92,34.93a8.51,8.51,0,0,0,1.84.9,76,76,0,0,0,16.63,3.88c8.06.81,166.9,6.9,203.09,8.28,4.16.16,7.85-1.6,8.55-4.09,1.35-4.75,3.46-12.33,4.59-17.2C299.74,61.12,299.3,60.72,293.42,60Z"/><text class="cls-3" transform="translate(105.86 48.68) rotate(1.95)"><tspan class="cls-4">R</tspan><tspan x="23.29" y="0">egi</tspan><tspan class="cls-5" x="76.86" y="0">s</tspan><tspan class="cls-6" x="94.54" y="0">t</tspan><tspan x="108.11" y="0">e</tspan><tspan class="cls-7" x="129.67" y="0">r</tspan></text></g></g></svg>